<?xml version="1.0" standalone="no"?>
<!DOCTYPE svg PUBLIC "-//W3C//DTD SVG 20010904//EN"
 "http://www.w3.org/TR/2001/REC-SVG-20010904/DTD/svg10.dtd">
<svg version="1.0" xmlns="http://www.w3.org/2000/svg"
 width="3500.000000pt" height="1881.000000pt" viewBox="0 0 3500.000000 1881.000000"
 preserveAspectRatio="xMidYMid meet">

<g transform="translate(0.000000,1881.000000) scale(0.100000,-0.100000)"
fill="#ea1d2c" stroke="none">
<path d="M2157 18788 c-3 -13 -98 -491 -211 -1063 -113 -572 -208 -1048 -210
-1058 -4 -16 62 -17 1317 -15 l1321 3 213 1075 c117 591 213 1076 213 1078 0
1 -594 2 -1319 2 l-1319 0 -5 -22z"/>
<path d="M9475 18799 c-1350 -81 -2461 -712 -3179 -1806 -258 -394 -457 -829
-602 -1321 -30 -101 -54 -186 -54 -188 0 -2 -210 -5 -467 -6 l-467 -3 -143
-730 c-78 -401 -142 -736 -143 -742 0 -10 97 -13 455 -13 250 0 455 -1 455 -3
0 -1 -362 -1813 -805 -4027 -443 -2214 -805 -4028 -805 -4032 0 -5 599 -8
1330 -8 783 0 1330 4 1330 9 0 9 1597 8018 1607 8059 l5 22 972 0 971 0 153
738 c84 405 152 740 152 745 0 4 -446 7 -990 7 l-990 0 5 23 c3 12 19 105 36
207 59 359 113 572 192 762 177 421 457 650 885 725 116 20 527 22 762 3 408
-32 768 -110 1060 -230 69 -28 132 -53 140 -56 12 -4 41 129 169 776 84 429
151 783 148 787 -10 10 -255 83 -417 124 -581 148 -1209 211 -1765 178z"/>
<path d="M32336 18793 c-3 -10 -161 -758 -351 -1663 -191 -905 -348 -1646
-349 -1647 -1 -1 -18 2 -37 7 -73 20 -392 70 -554 86 -240 25 -673 25 -850 0
-803 -110 -1539 -470 -2285 -1120 -144 -125 -454 -435 -587 -586 -953 -1088
-1582 -2442 -1714 -3690 -19 -179 -17 -551 4 -694 124 -834 641 -1454 1341
-1605 222 -48 540 -48 916 0 675 86 1307 340 1800 723 241 187 473 430 617
647 l46 69 80 0 c77 0 79 -1 73 -22 -3 -13 -77 -305 -165 -650 l-159 -628
1318 0 c1247 0 1319 1 1324 18 3 9 91 438 195 952 458 2252 1991 9787 1995
9803 4 16 -64 17 -1324 17 -1257 0 -1329 -1 -1334 -17z"/>
<path d="M14005 15629 c-1282 -74 -2430 -593 -3347 -1512 -858 -860 -1462
-2045 -1627 -3192 -31 -218 -41 -353 -41 -573 0 -314 30 -512 116 -771 300
-904 1213 -1534 2460 -1700 816 -109 1722 21 2517 360 491 210 961 504 1390
871 616 525 1158 1241 1498 1979 283 612 438 1201 480 1819 43 635 -95 1155
-425 1598 -570 766 -1728 1196 -3021 1121z"/>
<path d="M22405 15629 c-1282 -74 -2430 -593 -3347 -1512 -858 -860 -1462
-2045 -1627 -3192 -31 -218 -41 -353 -41 -573 0 -314 30 -512 116 -771 300
-904 1213 -1534 2460 -1700 816 -109 1722 21 2517 360 491 210 961 504 1390
871 616 525 1158 1241 1498 1979 283 612 438 1201 480 1819 43 635 -95 1155
-425 1598 -570 766 -1728 1196 -3021 1121z"/>
<path d="M1496 15463 c-3 -10 -338 -1683 -746 -3718 -408 -2035 -743 -3706
-745 -3713 -4 -10 263 -12 1327 -10 l1332 3 732 3705 c404 2038 736 3715 739
3728 l5 22 -1319 0 c-1248 0 -1320 -1 -1325 -17z"/>
<path d="M18593 5923 c3 -5 406 -314 896 -688 l890 -680 -32 -33 c-58 -61
-280 -259 -407 -363 -1280 -1051 -3128 -1815 -4860 -2008 -347 -39 -481 -46
-870 -46 -392 0 -527 8 -840 46 -1723 213 -3357 1165 -4427 2580 -254 336
-500 741 -649 1071 l-49 108 -86 0 -87 0 15 -77 c39 -215 131 -575 205 -803
464 -1440 1374 -2721 2579 -3631 930 -702 2027 -1157 3179 -1318 691 -96 1576
-104 2405 -20 2022 204 3884 971 5375 2216 74 62 138 113 141 113 3 0 183
-502 400 -1116 271 -768 396 -1110 401 -1097 14 33 1140 5725 1134 5731 -13
12 -5321 27 -5313 15z"/>
</g>
</svg>
